<svg xmlns="http://www.w3.org/2000/svg" width="638" height="227" fill="none" viewBox="0 0 638 227">
  <g filter="url(#filter0_d_14_7)">
    <circle cx="115" cy="111" r="21" fill="#FA623D"/>
  </g>
  <g filter="url(#filter1_d_14_7)">
    <circle cx="114.5" cy="110.5" r="77" stroke="#77858C" shape-rendering="crispEdges"/>
  </g>
  <g filter="url(#filter2_d_14_7)">
    <circle cx="114.5" cy="110.5" r="109" stroke="#77858C" shape-rendering="crispEdges"/>
  </g>
  <g filter="url(#filter3_d_14_7)">
    <circle cx="179.5" cy="71.5" r="8.5" fill="#FA623D"/>
  </g>
  <g filter="url(#filter4_d_14_7)">
    <circle cx="85.5" cy="182.5" r="8.5" fill="#FA623D"/>
  </g>
  <g filter="url(#filter5_d_14_7)">
    <circle cx="203.5" cy="173.5" r="8.5" fill="#FA623D"/>
  </g>
  <g filter="url(#filter6_d_14_7)">
    <circle cx="65.5" cy="14.5" r="8.5" fill="#FA623D"/>
  </g>
  <g filter="url(#filter7_d_14_7)">
    <circle cx="17.5" cy="62.5" r="8.5" fill="#FA623D"/>
  </g>
  <g filter="url(#filter8_d_14_7)">
    <circle cx="197.5" cy="40.5" r="8.5" fill="#FA623D"/>
  </g>
  <g filter="url(#filter9_d_14_7)">
    <path fill="#FA623D" d="M266.01 48.565h-8.262V65h-7.412V22.344h15c4.922 0 8.721 1.103 11.396 3.31 2.676 2.207 4.014 5.4 4.014 9.58 0 2.852-.693 5.244-2.08 7.178-1.367 1.914-3.281 3.389-5.742 4.424l9.58 17.783V65h-7.94l-8.554-16.435zm-8.262-5.948h7.617c2.5 0 4.453-.625 5.86-1.875 1.406-1.27 2.109-2.998 2.109-5.185 0-2.285-.654-4.053-1.963-5.303-1.289-1.25-3.223-1.895-5.801-1.934h-7.822v14.297zm28.008 6.24c0-3.105.615-5.898 1.846-8.379 1.23-2.5 2.959-4.413 5.185-5.742 2.227-1.347 4.785-2.021 7.676-2.021 4.277 0 7.744 1.377 10.4 4.13 2.676 2.755 4.121 6.407 4.336 10.958l.03 1.67c0 3.125-.606 5.918-1.817 8.379-1.191 2.46-2.91 4.365-5.156 5.713-2.227 1.347-4.805 2.02-7.735 2.02-4.472 0-8.056-1.483-10.751-4.452-2.676-2.989-4.014-6.963-4.014-11.924v-.352zm7.119.616c0 3.261.674 5.82 2.021 7.675 1.348 1.836 3.223 2.754 5.625 2.754 2.403 0 4.268-.937 5.596-2.812 1.348-1.875 2.022-4.62 2.022-8.233 0-3.203-.694-5.742-2.08-7.617-1.368-1.875-3.233-2.812-5.596-2.812-2.324 0-4.17.928-5.537 2.783-1.367 1.836-2.051 4.59-2.051 8.262zm46.143 6.914c0-1.27-.528-2.237-1.582-2.9-1.036-.665-2.764-1.25-5.186-1.759-2.422-.507-4.443-1.152-6.064-1.933-3.555-1.719-5.332-4.21-5.332-7.47 0-2.735 1.152-5.02 3.457-6.856 2.304-1.836 5.234-2.754 8.789-2.754 3.789 0 6.845.937 9.17 2.812 2.343 1.875 3.515 4.307 3.515 7.295h-7.119c0-1.367-.508-2.5-1.523-3.398-1.016-.918-2.364-1.377-4.043-1.377-1.563 0-2.842.361-3.838 1.084-.977.722-1.465 1.69-1.465 2.9 0 1.094.459 1.944 1.377 2.55.918.604 2.773 1.22 5.566 1.845 2.793.605 4.981 1.338 6.563 2.197 1.601.84 2.783 1.855 3.545 3.047.781 1.191 1.172 2.637 1.172 4.336 0 2.851-1.182 5.166-3.545 6.943-2.364 1.758-5.459 2.637-9.287 2.637-2.598 0-4.913-.469-6.944-1.406-2.031-.938-3.613-2.227-4.746-3.868-1.133-1.64-1.699-3.408-1.699-5.302h6.914c.098 1.68.732 2.978 1.904 3.896 1.172.899 2.725 1.348 4.658 1.348 1.875 0 3.301-.352 4.278-1.055.976-.722 1.465-1.66 1.465-2.812zm30.996 0c0-1.27-.528-2.237-1.582-2.9-1.036-.665-2.764-1.25-5.186-1.759-2.422-.507-4.443-1.152-6.064-1.933-3.555-1.719-5.332-4.21-5.332-7.47 0-2.735 1.152-5.02 3.457-6.856 2.304-1.836 5.234-2.754 8.789-2.754 3.789 0 6.845.937 9.17 2.812 2.343 1.875 3.515 4.307 3.515 7.295h-7.119c0-1.367-.508-2.5-1.523-3.398-1.016-.918-2.364-1.377-4.043-1.377-1.563 0-2.842.361-3.838 1.084-.977.722-1.465 1.69-1.465 2.9 0 1.094.459 1.944 1.377 2.55.918.604 2.773 1.22 5.566 1.845 2.793.605 4.981 1.338 6.563 2.197 1.601.84 2.783 1.855 3.545 3.047.781 1.191 1.172 2.637 1.172 4.336 0 2.851-1.182 5.166-3.545 6.943-2.364 1.758-5.459 2.637-9.287 2.637-2.598 0-4.913-.469-6.944-1.406-2.031-.938-3.613-2.227-4.746-3.868-1.133-1.64-1.699-3.408-1.699-5.302h6.914c.098 1.68.732 2.978 1.904 3.896 1.172.899 2.725 1.348 4.658 1.348 1.875 0 3.301-.352 4.278-1.055.976-.722 1.465-1.66 1.465-2.812z"/>
  </g>
  <g filter="url(#filter10_d_14_7)">
    <path fill="#FA623D" d="M281.156 92.32h-13.301V129h-7.353V92.32h-13.184v-5.976h33.838v5.976zm16.26 37.266c-4.512 0-8.174-1.416-10.986-4.248-2.793-2.852-4.19-6.641-4.19-11.367v-.879c0-3.164.606-5.987 1.817-8.467 1.23-2.5 2.949-4.443 5.156-5.83 2.207-1.387 4.668-2.08 7.383-2.08 4.316 0 7.646 1.377 9.99 4.131 2.363 2.754 3.545 6.65 3.545 11.689v2.871h-20.713c.215 2.617 1.084 4.688 2.607 6.211 1.543 1.524 3.477 2.285 5.801 2.285 3.262 0 5.918-1.318 7.969-3.955l3.838 3.662c-1.27 1.895-2.969 3.37-5.098 4.424-2.109 1.035-4.482 1.553-7.119 1.553zm-.85-27.158c-1.953 0-3.535.683-4.746 2.051-1.191 1.367-1.953 3.271-2.285 5.712H303.1v-.527c-.157-2.383-.791-4.18-1.905-5.391-1.113-1.23-2.656-1.845-4.629-1.845zm32.139 21.474c1.777 0 3.252-.517 4.424-1.552 1.172-1.036 1.797-2.315 1.875-3.838h6.709c-.078 1.972-.693 3.818-1.846 5.537-1.152 1.699-2.715 3.047-4.687 4.043-1.973.996-4.102 1.494-6.387 1.494-4.434 0-7.949-1.436-10.547-4.307-2.598-2.871-3.896-6.836-3.896-11.894v-.733c0-4.824 1.289-8.681 3.867-11.572 2.578-2.91 6.094-4.365 10.547-4.365 3.769 0 6.836 1.103 9.199 3.31 2.383 2.188 3.633 5.069 3.75 8.643h-6.709c-.078-1.816-.703-3.311-1.875-4.482-1.152-1.172-2.627-1.758-4.424-1.758-2.305 0-4.082.84-5.332 2.519-1.25 1.66-1.885 4.19-1.904 7.588v1.143c0 3.437.615 6.006 1.845 7.705 1.25 1.679 3.047 2.519 5.391 2.519zm25.4-23.144c2.325-2.695 5.264-4.043 8.819-4.043 6.758 0 10.185 3.857 10.283 11.572V129h-7.119v-20.449c0-2.188-.479-3.731-1.436-4.629-.937-.918-2.324-1.377-4.16-1.377-2.851 0-4.98 1.269-6.387 3.809V129h-7.119V84h7.119v16.758zm32.93-3.457l.205 3.662c2.344-2.832 5.42-4.248 9.229-4.248 6.601 0 9.961 3.779 10.078 11.338V129h-7.119v-20.537c0-2.012-.44-3.496-1.319-4.453-.859-.977-2.275-1.465-4.248-1.465-2.871 0-5.009 1.299-6.416 3.896V129h-7.119V97.3h6.709zm25.459 15.556c0-3.105.615-5.898 1.846-8.378 1.23-2.5 2.959-4.415 5.185-5.743 2.227-1.347 4.786-2.021 7.676-2.021 4.278 0 7.744 1.377 10.401 4.131 2.675 2.754 4.121 6.406 4.336 10.957l.029 1.67c0 3.125-.606 5.918-1.817 8.379-1.191 2.46-2.91 4.365-5.156 5.712-2.226 1.348-4.805 2.022-7.734 2.022-4.473 0-8.057-1.484-10.752-4.453-2.676-2.988-4.014-6.963-4.014-11.924v-.352zm7.119.616c0 3.261.674 5.82 2.022 7.675 1.347 1.836 3.222 2.754 5.625 2.754 2.402 0 4.267-.937 5.595-2.812 1.348-1.875 2.022-4.619 2.022-8.233 0-3.203-.693-5.742-2.08-7.617-1.367-1.875-3.233-2.812-5.596-2.812-2.324 0-4.17.927-5.537 2.783-1.367 1.836-2.051 4.59-2.051 8.262zM455.561 129h-7.12V84h7.12v45zm6.445-16.143c0-3.105.615-5.898 1.846-8.378 1.23-2.5 2.959-4.415 5.185-5.743 2.227-1.347 4.785-2.021 7.676-2.021 4.277 0 7.744 1.377 10.4 4.131 2.676 2.754 4.121 6.406 4.336 10.957l.03 1.67c0 3.125-.606 5.918-1.817 8.379-1.191 2.46-2.91 4.365-5.156 5.712-2.227 1.348-4.805 2.022-7.735 2.022-4.472 0-8.056-1.484-10.751-4.453-2.676-2.988-4.014-6.963-4.014-11.924v-.352zm7.119.616c0 3.261.674 5.82 2.021 7.675 1.348 1.836 3.223 2.754 5.625 2.754 2.403 0 4.268-.937 5.596-2.812 1.348-1.875 2.022-4.619 2.022-8.233 0-3.203-.694-5.742-2.08-7.617-1.368-1.875-3.233-2.812-5.596-2.812-2.324 0-4.17.927-5.537 2.783-1.367 1.836-2.051 4.59-2.051 8.262zm27.129-.557c0-4.922 1.152-8.848 3.457-11.777 2.324-2.95 5.4-4.424 9.228-4.424 3.614 0 6.456 1.26 8.526 3.779l.322-3.193h6.416v30.732c0 4.16-1.299 7.442-3.896 9.844-2.578 2.402-6.065 3.603-10.459 3.603-2.325 0-4.6-.488-6.827-1.464-2.207-.957-3.886-2.217-5.039-3.78l3.37-4.277c2.187 2.598 4.882 3.896 8.086 3.896 2.363 0 4.228-.644 5.595-1.933 1.367-1.27 2.051-3.145 2.051-5.625v-2.139c-2.051 2.285-4.785 3.428-8.203 3.428-3.711 0-6.748-1.475-9.111-4.424-2.344-2.949-3.516-7.031-3.516-12.246zm7.09.615c0 3.184.644 5.694 1.933 7.53 1.309 1.816 3.116 2.724 5.42 2.724 2.871 0 5-1.23 6.387-3.691v-13.946c-1.348-2.402-3.457-3.603-6.328-3.603-2.344 0-4.17.928-5.479 2.783-1.289 1.856-1.933 4.59-1.933 8.203zm39.287 5.274l6.445-21.504h7.588l-12.598 36.504c-1.933 5.332-5.214 7.998-9.843 7.998-1.035 0-2.178-.176-3.428-.528v-5.507l1.348.087c1.796 0 3.144-.332 4.043-.996.918-.644 1.64-1.738 2.168-3.281l1.025-2.724-11.133-31.553h7.676l6.709 21.504z"/>
  </g>
  <g filter="url(#filter11_d_14_7)">
    <path fill="#FA623D" d="M272.631 185.014c0-1.875-.664-3.321-1.992-4.336-1.309-1.016-3.682-2.041-7.119-3.076-3.438-1.036-6.172-2.188-8.204-3.457-3.886-2.442-5.83-5.625-5.83-9.551 0-3.438 1.397-6.27 4.19-8.496 2.812-2.227 6.455-3.34 10.928-3.34 2.968 0 5.615.547 7.939 1.64 2.324 1.094 4.15 2.657 5.478 4.688 1.329 2.012 1.993 4.248 1.993 6.709h-7.383c0-2.227-.703-3.965-2.11-5.215-1.386-1.269-3.378-1.904-5.976-1.904-2.422 0-4.307.517-5.654 1.553-1.329 1.035-1.993 2.48-1.993 4.335 0 1.563.723 2.872 2.168 3.926 1.446 1.035 3.829 2.051 7.149 3.047 3.32.977 5.986 2.1 7.998 3.369 2.012 1.25 3.486 2.696 4.424 4.336.937 1.621 1.406 3.526 1.406 5.713 0 3.555-1.367 6.387-4.102 8.496-2.714 2.09-6.406 3.135-11.074 3.135-3.086 0-5.928-.566-8.525-1.699-2.578-1.153-4.59-2.735-6.035-4.746-1.426-2.012-2.139-4.356-2.139-7.032h7.412c0 2.422.801 4.297 2.402 5.625 1.602 1.328 3.897 1.993 6.885 1.993 2.578 0 4.512-.518 5.801-1.553 1.309-1.055 1.963-2.442 1.963-4.16zm11.894-5.157c0-3.105.616-5.898 1.846-8.378 1.231-2.5 2.959-4.415 5.186-5.743 2.226-1.347 4.785-2.021 7.675-2.021 4.278 0 7.745 1.377 10.401 4.131 2.676 2.754 4.121 6.406 4.336 10.957l.029 1.67c0 3.125-.605 5.918-1.816 8.379-1.192 2.46-2.911 4.365-5.157 5.712-2.226 1.348-4.804 2.022-7.734 2.022-4.473 0-8.057-1.484-10.752-4.453-2.676-2.988-4.014-6.963-4.014-11.924v-.352zm7.12.616c0 3.261.673 5.82 2.021 7.675 1.348 1.836 3.223 2.754 5.625 2.754s4.268-.937 5.596-2.812c1.347-1.875 2.021-4.619 2.021-8.233 0-3.203-.693-5.742-2.08-7.617-1.367-1.875-3.232-2.812-5.596-2.812-2.324 0-4.17.927-5.537 2.783-1.367 1.836-2.05 4.59-2.05 8.262zM327.592 196h-7.119v-45h7.119v45zm26.982-3.105c-2.09 2.46-5.058 3.691-8.906 3.691-3.438 0-6.045-1.006-7.822-3.018-1.758-2.011-2.637-4.922-2.637-8.73v-20.537h7.119v20.449c0 4.023 1.67 6.035 5.01 6.035 3.457 0 5.791-1.24 7.002-3.721v-22.763h7.119V196h-6.709l-.176-3.105zm23.057-36.299v7.705h5.596v5.273h-5.596v17.696c0 1.21.234 2.089.703 2.636.488.528 1.348.791 2.578.791.82 0 1.65-.097 2.49-.293v5.508c-1.621.449-3.183.674-4.687.674-5.469 0-8.203-3.018-8.203-9.053v-17.959h-5.215v-5.273h5.215v-7.705h7.119zM396.264 196h-7.119v-31.699h7.119V196zm-7.559-39.932c0-1.093.342-2.002 1.025-2.724.704-.723 1.7-1.084 2.989-1.084s2.285.361 2.988 1.084c.703.722 1.055 1.631 1.055 2.724 0 1.075-.352 1.973-1.055 2.696-.703.703-1.699 1.054-2.988 1.054s-2.285-.351-2.989-1.054c-.683-.723-1.025-1.621-1.025-2.696zm14.004 23.789c0-3.105.615-5.898 1.846-8.378 1.23-2.5 2.959-4.415 5.185-5.743 2.227-1.347 4.785-2.021 7.676-2.021 4.277 0 7.744 1.377 10.4 4.131 2.676 2.754 4.122 6.406 4.336 10.957l.03 1.67c0 3.125-.606 5.918-1.817 8.379-1.191 2.46-2.91 4.365-5.156 5.712-2.227 1.348-4.805 2.022-7.734 2.022-4.473 0-8.057-1.484-10.752-4.453-2.676-2.988-4.014-6.963-4.014-11.924v-.352zm7.119.616c0 3.261.674 5.82 2.022 7.675 1.347 1.836 3.222 2.754 5.625 2.754 2.402 0 4.267-.937 5.595-2.812 1.348-1.875 2.022-4.619 2.022-8.233 0-3.203-.694-5.742-2.08-7.617-1.367-1.875-3.233-2.812-5.596-2.812-2.324 0-4.17.927-5.537 2.783-1.367 1.836-2.051 4.59-2.051 8.262zm34.981-16.172l.205 3.662c2.343-2.832 5.42-4.248 9.228-4.248 6.602 0 9.961 3.779 10.078 11.338V196h-7.119v-20.537c0-2.012-.439-3.496-1.318-4.453-.86-.977-2.276-1.465-4.248-1.465-2.871 0-5.01 1.299-6.416 3.896V196H438.1v-31.699h6.709zm44.56 23.086c0-1.27-.527-2.237-1.582-2.901-1.035-.664-2.764-1.25-5.185-1.757-2.422-.508-4.444-1.153-6.065-1.934-3.555-1.719-5.332-4.209-5.332-7.471 0-2.734 1.152-5.019 3.457-6.855 2.305-1.836 5.234-2.754 8.789-2.754 3.789 0 6.846.937 9.17 2.812 2.344 1.875 3.516 4.307 3.516 7.295h-7.119c0-1.367-.508-2.5-1.524-3.398-1.015-.918-2.363-1.377-4.043-1.377-1.562 0-2.842.361-3.838 1.084-.976.723-1.465 1.689-1.465 2.9 0 1.094.459 1.944 1.377 2.549.918.606 2.774 1.221 5.567 1.846 2.793.605 4.98 1.338 6.562 2.197 1.602.84 2.784 1.856 3.545 3.047.781 1.191 1.172 2.637 1.172 4.336 0 2.851-1.182 5.166-3.545 6.943-2.363 1.758-5.459 2.637-9.287 2.637-2.598 0-4.912-.469-6.943-1.406-2.032-.938-3.614-2.227-4.746-3.868-1.133-1.64-1.7-3.408-1.7-5.302h6.914c.098 1.679.733 2.978 1.905 3.896 1.172.899 2.724 1.348 4.658 1.348 1.875 0 3.301-.352 4.277-1.055.977-.722 1.465-1.66 1.465-2.812z"/>
  </g>
  <defs>
    <filter id="filter0_d_14_7" width="50" height="50" x="89" y="89" color-interpolation-filters="sRGB" filterUnits="userSpaceOnUse">
      <feFlood flood-opacity="0" result="BackgroundImageFix"/>
      <feColorMatrix in="SourceAlpha" result="hardAlpha" values="0 0 0 0 0 0 0 0 0 0 0 0 0 0 0 0 0 0 127 0"/>
      <feOffset dx="-1" dy="3"/>
      <feGaussianBlur stdDeviation="2"/>
      <feComposite in2="hardAlpha" operator="out"/>
      <feColorMatrix values="0 0 0 0 0 0 0 0 0 0 0 0 0 0 0 0 0 0 0.25 0"/>
      <feBlend in2="BackgroundImageFix" result="effect1_dropShadow_14_7"/>
      <feBlend in="SourceGraphic" in2="effect1_dropShadow_14_7" result="shape"/>
    </filter>
    <filter id="filter1_d_14_7" width="163" height="163" x="32" y="32" color-interpolation-filters="sRGB" filterUnits="userSpaceOnUse">
      <feFlood flood-opacity="0" result="BackgroundImageFix"/>
      <feColorMatrix in="SourceAlpha" result="hardAlpha" values="0 0 0 0 0 0 0 0 0 0 0 0 0 0 0 0 0 0 127 0"/>
      <feOffset dx="-1" dy="3"/>
      <feGaussianBlur stdDeviation="2"/>
      <feComposite in2="hardAlpha" operator="out"/>
      <feColorMatrix values="0 0 0 0 0 0 0 0 0 0 0 0 0 0 0 0 0 0 0.25 0"/>
      <feBlend in2="BackgroundImageFix" result="effect1_dropShadow_14_7"/>
      <feBlend in="SourceGraphic" in2="effect1_dropShadow_14_7" result="shape"/>
    </filter>
    <filter id="filter2_d_14_7" width="227" height="227" x="0" y="0" color-interpolation-filters="sRGB" filterUnits="userSpaceOnUse">
      <feFlood flood-opacity="0" result="BackgroundImageFix"/>
      <feColorMatrix in="SourceAlpha" result="hardAlpha" values="0 0 0 0 0 0 0 0 0 0 0 0 0 0 0 0 0 0 127 0"/>
      <feOffset dx="-1" dy="3"/>
      <feGaussianBlur stdDeviation="2"/>
      <feComposite in2="hardAlpha" operator="out"/>
      <feColorMatrix values="0 0 0 0 0 0 0 0 0 0 0 0 0 0 0 0 0 0 0.25 0"/>
      <feBlend in2="BackgroundImageFix" result="effect1_dropShadow_14_7"/>
      <feBlend in="SourceGraphic" in2="effect1_dropShadow_14_7" result="shape"/>
    </filter>
    <filter id="filter3_d_14_7" width="25" height="25" x="166" y="62" color-interpolation-filters="sRGB" filterUnits="userSpaceOnUse">
      <feFlood flood-opacity="0" result="BackgroundImageFix"/>
      <feColorMatrix in="SourceAlpha" result="hardAlpha" values="0 0 0 0 0 0 0 0 0 0 0 0 0 0 0 0 0 0 127 0"/>
      <feOffset dx="-1" dy="3"/>
      <feGaussianBlur stdDeviation="2"/>
      <feComposite in2="hardAlpha" operator="out"/>
      <feColorMatrix values="0 0 0 0 0 0 0 0 0 0 0 0 0 0 0 0 0 0 0.25 0"/>
      <feBlend in2="BackgroundImageFix" result="effect1_dropShadow_14_7"/>
      <feBlend in="SourceGraphic" in2="effect1_dropShadow_14_7" result="shape"/>
    </filter>
    <filter id="filter4_d_14_7" width="25" height="25" x="72" y="173" color-interpolation-filters="sRGB" filterUnits="userSpaceOnUse">
      <feFlood flood-opacity="0" result="BackgroundImageFix"/>
      <feColorMatrix in="SourceAlpha" result="hardAlpha" values="0 0 0 0 0 0 0 0 0 0 0 0 0 0 0 0 0 0 127 0"/>
      <feOffset dx="-1" dy="3"/>
      <feGaussianBlur stdDeviation="2"/>
      <feComposite in2="hardAlpha" operator="out"/>
      <feColorMatrix values="0 0 0 0 0 0 0 0 0 0 0 0 0 0 0 0 0 0 0.25 0"/>
      <feBlend in2="BackgroundImageFix" result="effect1_dropShadow_14_7"/>
      <feBlend in="SourceGraphic" in2="effect1_dropShadow_14_7" result="shape"/>
    </filter>
    <filter id="filter5_d_14_7" width="25" height="25" x="190" y="164" color-interpolation-filters="sRGB" filterUnits="userSpaceOnUse">
      <feFlood flood-opacity="0" result="BackgroundImageFix"/>
      <feColorMatrix in="SourceAlpha" result="hardAlpha" values="0 0 0 0 0 0 0 0 0 0 0 0 0 0 0 0 0 0 127 0"/>
      <feOffset dx="-1" dy="3"/>
      <feGaussianBlur stdDeviation="2"/>
      <feComposite in2="hardAlpha" operator="out"/>
      <feColorMatrix values="0 0 0 0 0 0 0 0 0 0 0 0 0 0 0 0 0 0 0.25 0"/>
      <feBlend in2="BackgroundImageFix" result="effect1_dropShadow_14_7"/>
      <feBlend in="SourceGraphic" in2="effect1_dropShadow_14_7" result="shape"/>
    </filter>
    <filter id="filter6_d_14_7" width="25" height="25" x="52" y="5" color-interpolation-filters="sRGB" filterUnits="userSpaceOnUse">
      <feFlood flood-opacity="0" result="BackgroundImageFix"/>
      <feColorMatrix in="SourceAlpha" result="hardAlpha" values="0 0 0 0 0 0 0 0 0 0 0 0 0 0 0 0 0 0 127 0"/>
      <feOffset dx="-1" dy="3"/>
      <feGaussianBlur stdDeviation="2"/>
      <feComposite in2="hardAlpha" operator="out"/>
      <feColorMatrix values="0 0 0 0 0 0 0 0 0 0 0 0 0 0 0 0 0 0 0.25 0"/>
      <feBlend in2="BackgroundImageFix" result="effect1_dropShadow_14_7"/>
      <feBlend in="SourceGraphic" in2="effect1_dropShadow_14_7" result="shape"/>
    </filter>
    <filter id="filter7_d_14_7" width="25" height="25" x="4" y="53" color-interpolation-filters="sRGB" filterUnits="userSpaceOnUse">
      <feFlood flood-opacity="0" result="BackgroundImageFix"/>
      <feColorMatrix in="SourceAlpha" result="hardAlpha" values="0 0 0 0 0 0 0 0 0 0 0 0 0 0 0 0 0 0 127 0"/>
      <feOffset dx="-1" dy="3"/>
      <feGaussianBlur stdDeviation="2"/>
      <feComposite in2="hardAlpha" operator="out"/>
      <feColorMatrix values="0 0 0 0 0 0 0 0 0 0 0 0 0 0 0 0 0 0 0.25 0"/>
      <feBlend in2="BackgroundImageFix" result="effect1_dropShadow_14_7"/>
      <feBlend in="SourceGraphic" in2="effect1_dropShadow_14_7" result="shape"/>
    </filter>
    <filter id="filter8_d_14_7" width="25" height="25" x="184" y="31" color-interpolation-filters="sRGB" filterUnits="userSpaceOnUse">
      <feFlood flood-opacity="0" result="BackgroundImageFix"/>
      <feColorMatrix in="SourceAlpha" result="hardAlpha" values="0 0 0 0 0 0 0 0 0 0 0 0 0 0 0 0 0 0 127 0"/>
      <feOffset dx="-1" dy="3"/>
      <feGaussianBlur stdDeviation="2"/>
      <feComposite in2="hardAlpha" operator="out"/>
      <feColorMatrix values="0 0 0 0 0 0 0 0 0 0 0 0 0 0 0 0 0 0 0.25 0"/>
      <feBlend in2="BackgroundImageFix" result="effect1_dropShadow_14_7"/>
      <feBlend in="SourceGraphic" in2="effect1_dropShadow_14_7" result="shape"/>
    </filter>
    <filter id="filter9_d_14_7" width="134.68" height="51.242" x="245.336" y="21.344" color-interpolation-filters="sRGB" filterUnits="userSpaceOnUse">
      <feFlood flood-opacity="0" result="BackgroundImageFix"/>
      <feColorMatrix in="SourceAlpha" result="hardAlpha" values="0 0 0 0 0 0 0 0 0 0 0 0 0 0 0 0 0 0 127 0"/>
      <feOffset dx="-1" dy="3"/>
      <feGaussianBlur stdDeviation="2"/>
      <feComposite in2="hardAlpha" operator="out"/>
      <feColorMatrix values="0 0 0 0 0 0 0 0 0 0 0 0 0 0 0 0 0 0 0.25 0"/>
      <feBlend in2="BackgroundImageFix" result="effect1_dropShadow_14_7"/>
      <feBlend in="SourceGraphic" in2="effect1_dropShadow_14_7" result="shape"/>
    </filter>
    <filter id="filter10_d_14_7" width="317.346" height="65.803" x="242.318" y="83" color-interpolation-filters="sRGB" filterUnits="userSpaceOnUse">
      <feFlood flood-opacity="0" result="BackgroundImageFix"/>
      <feColorMatrix in="SourceAlpha" result="hardAlpha" values="0 0 0 0 0 0 0 0 0 0 0 0 0 0 0 0 0 0 127 0"/>
      <feOffset dx="-1" dy="3"/>
      <feGaussianBlur stdDeviation="2"/>
      <feComposite in2="hardAlpha" operator="out"/>
      <feColorMatrix values="0 0 0 0 0 0 0 0 0 0 0 0 0 0 0 0 0 0 0.25 0"/>
      <feBlend in2="BackgroundImageFix" result="effect1_dropShadow_14_7"/>
      <feBlend in="SourceGraphic" in2="effect1_dropShadow_14_7" result="shape"/>
    </filter>
    <filter id="filter11_d_14_7" width="256.203" height="53.586" x="243.168" y="150" color-interpolation-filters="sRGB" filterUnits="userSpaceOnUse">
      <feFlood flood-opacity="0" result="BackgroundImageFix"/>
      <feColorMatrix in="SourceAlpha" result="hardAlpha" values="0 0 0 0 0 0 0 0 0 0 0 0 0 0 0 0 0 0 127 0"/>
      <feOffset dx="-1" dy="3"/>
      <feGaussianBlur stdDeviation="2"/>
      <feComposite in2="hardAlpha" operator="out"/>
      <feColorMatrix values="0 0 0 0 0 0 0 0 0 0 0 0 0 0 0 0 0 0 0.25 0"/>
      <feBlend in2="BackgroundImageFix" result="effect1_dropShadow_14_7"/>
      <feBlend in="SourceGraphic" in2="effect1_dropShadow_14_7" result="shape"/>
    </filter>
  </defs>
</svg>
